<svg xmlns="http://www.w3.org/2000/svg" width="143.215" height="31.662" viewBox="0 0 143.215 31.662">
  <g id="Phreetech_Logo" data-name="Phreetech Logo" transform="translate(-0.454 -8)">
    <path id="Path_107484" data-name="Path 107484" d="M26.882,18.664c1.126.7,2.154.186,3.123-1.047C28.489,17.217,27.362,17.43,26.882,18.664Zm-6.406-2.085c-.846-.62-.778-1.528-.16-2.607C21.061,14.967,21.241,15.859,20.476,16.579Zm-11.4,4.815c-1.112.519-2-.061-2.763-1.3C7.753,19.889,8.769,20.207,9.077,21.394ZM4.024,11.3c-1-.326-1.215-1.21-.964-2.428C4.078,9.586,4.526,10.378,4.024,11.3ZM6.89,23.358c-.272-1.143-1.238-1.467-2.619-1.3C4.973,23.259,5.815,23.832,6.89,23.358Zm-.319-5.93c-.951.444-1.714-.053-2.363-1.113C5.438,16.14,6.306,16.413,6.57,17.428ZM16.8,25.915c-.825.828-1.812.6-2.9-.261C15.12,25,16.132,24.954,16.8,25.915Zm-.6-3.36c-.653.89-1.607.818-2.744.169C14.5,21.94,15.442,21.751,16.2,22.555Zm-5.771,2.8c-.865.594-1.7.229-2.514-.71C9.1,24.269,10,24.395,10.429,25.353Zm9.845-3.6c-.886.188-1.431-.379-1.771-1.4C19.573,20.451,20.25,20.849,20.274,21.754ZM13.1,14.764c-1.258-.066-1.787-1.023-1.878-2.512C12.623,12.76,13.391,13.538,13.1,14.764Zm4.379,4.442c-.687,1.007-1.743.964-3.021.29C15.582,18.591,16.611,18.348,17.477,19.206Zm.393-6.55c-.846-.62-.778-1.528-.161-2.607C18.454,11.044,18.634,11.936,17.87,12.656Zm2.44,10.1c-.645.911-1.612.854-2.77.216C18.585,22.161,19.531,21.955,20.309,22.754ZM6.827,13.263c-1.156.195-1.831-.566-2.216-1.9C5.989,11.54,6.844,12.091,6.827,13.263Zm3.007,4.468c-1.053.178-1.667-.515-2.017-1.73C9.071,16.162,9.849,16.663,9.834,17.731Zm3.75,2.41c-.7.982-1.738.921-2.987.233C11.724,19.5,12.743,19.279,13.583,20.141Zm14.341,6.621c.779,1.069,1.924.986,3.287.212C29.96,26.031,28.836,25.8,27.925,26.762ZM2.894,19.681c-1.256.23-2-.588-2.44-2.034,1.5.172,2.439.758,2.438,2.033m13.18-2.54c-.924.657-1.831.278-2.727-.721C14.619,15.994,15.6,16.113,16.073,17.141Zm3.8,1.514c.4-.971-.133-1.709-1.222-2.308C18.534,17.585,18.846,18.439,19.873,18.655Z" fill="#67b500" fill-rule="evenodd"/>
    <path id="Path_107485" data-name="Path 107485" d="M9.951,10.616c-1.131.191-1.79-.553-2.167-1.859C9.132,8.931,9.967,9.469,9.951,10.616Zm6.5,5.543c-1.29.126-1.975-.766-2.3-2.268C15.66,14.2,16.559,14.868,16.449,16.16Zm18.157,2.692c1.469.2,2.287-.792,2.717-2.494C35.59,16.64,34.534,17.372,34.606,18.852ZM13.383,24.045c-.813.816-1.787.591-2.857-.257C11.73,23.143,12.728,23.1,13.383,24.045Zm-4.44-5c-.951.444-1.714-.053-2.363-1.113C7.811,17.76,8.679,18.032,8.943,19.047Zm10.7,5.943c-.852.614-1.693.268-2.53-.651C18.293,23.937,19.2,24.042,19.646,24.99Zm-6.3-6.2c-1.2.195-1.894-.6-2.285-1.983C12.492,17,13.375,17.574,13.35,18.789Z" fill="#ef6700" fill-rule="evenodd"/>
    <path id="Path_107486" data-name="Path 107486" d="M10.155,19.325a1.86,1.86,0,0,0-.416-1.362l-.024-.034a.5.5,0,0,0,.219-.114c.016-.018.032-.038.049-.059a1.968,1.968,0,0,1,.428.633,3.719,3.719,0,0,1,.159,1.26l.006.218,0,.15-.131-.073-.19-.107L8.9,19.064l.07-.154Zm10.425-2.767c.013.251.036.5.058.748.031.338.062.677.069,1.02,0,.107.019.3.039.521a6.032,6.032,0,0,1,0,1.9l.008.015v0l.026.053.034.068-.064.041-.208.132-.071.045-.046-.071a8.671,8.671,0,0,0-1.914-2.109,15.486,15.486,0,0,0-2.259-1.463l.058-.157a6.7,6.7,0,0,1,2.3,1.217,9.635,9.635,0,0,1,1.83,1.752c-.013-.146-.026-.287-.04-.428-.047-.5-.094-.989-.1-1.51,0-.077-.009-.19-.017-.319-.033-.525-.083-1.312.166-1.518l.13-.107Zm-6.52,4.3a10.774,10.774,0,0,0-4.111,1.392l.076.149A23.618,23.618,0,0,1,14,21.359a13.239,13.239,0,0,1,4.348.018l.083.015.014-.084.064-.369.013-.073-.072-.022a11.052,11.052,0,0,0-4.388.011m6.651,3.2a5,5,0,0,1-.679,1.671,3.348,3.348,0,0,1-1.212,1.115,5.542,5.542,0,0,1-3.235.4,14.221,14.221,0,0,1-4.3-1.3l.06-.157c.255.07.516.146.79.225,2.031.586,4.795,1.384,6.49.47a2.945,2.945,0,0,0,1.068-.99,4.591,4.591,0,0,0,.614-1.521l.019-.083.082.019.24.054.083.018ZM19.7,9.373a.871.871,0,0,1,.417.053.684.684,0,0,1,.3.251,2.226,2.226,0,0,1,.091,1.182c-.012.146-.022.281-.022.382v.086H20.4c-.231,0-.288-.151-.285-.368a2.806,2.806,0,0,1,.025-.287,1.156,1.156,0,0,0-.065-.757.281.281,0,0,0-.132-.1.463.463,0,0,0-.209-.022,1.531,1.531,0,0,0-.651.239,1.483,1.483,0,0,0-.487.48l-.157-.029c0-.015,0-.031-.006-.048a.823.823,0,0,1,.442-.749,2.118,2.118,0,0,1,.753-.3l.066-.009m-13.787,1.5c.687.573,1.307,1.131,1.918,1.68.792.713,1.573,1.417,2.459,2.115.131.1.262.211.39.317a3.414,3.414,0,0,0,1.532.908q-.033-.042-.064-.084c-.056-.075-.11-.151-.162-.226v0a3.554,3.554,0,0,0-.463-.568l0,0L11.506,15l0,0c-.39-.452-.722-.871-1.029-1.278s-.587-.8-.874-1.2c-.319-.448-.645-.906-1.006-1.381-.049-.065-.111-.141-.18-.225s-.142-.17-.227-.268l0-.006C7.554,9.9,6.7,8.9,6.988,8.356a.7.7,0,0,1,.091-.137.611.611,0,0,1,.117-.1.646.646,0,0,1,.135-.071A.87.87,0,0,1,7.483,8l.061.155A.432.432,0,0,0,7.3,8.5a1.053,1.053,0,0,0,.157.484,4.848,4.848,0,0,0,.463.682c.192.246.4.489.584.706.085.1.167.195.233.275s.135.165.189.236c.379.5.7.95,1.012,1.388l0,0c.284.4.564.792.864,1.191s.628.813,1.007,1.253a2.96,2.96,0,0,1,.282.312c.08.1.155.208.23.314h0a3.567,3.567,0,0,0,.463.568l.164.155.113.107-.151.037-.219.054c-.837.206-1.548-.371-2.33-1-.11-.089-.221-.179-.334-.268-.781-.616-1.5-1.254-2.195-1.92S6.473,11.724,5.793,11Zm.122,13.35A7.294,7.294,0,0,1,3.59,22.667a7.114,7.114,0,0,1-1.8-2.232l.145-.084a15.474,15.474,0,0,0,1.833,1.97A8.66,8.66,0,0,0,6.18,23.839l.078.033-.032.076-.094.227-.029.069ZM9.16,21.432l.142.654c-.146.257-.487.347-.939.321a6.71,6.71,0,0,1-2.086-.588,12.354,12.354,0,0,1-1.572-.84A20.235,20.235,0,0,1,2.97,19.767l-.113.125a9.4,9.4,0,0,0,1.461,1.236,11.5,11.5,0,0,0,1.772,1,6.774,6.774,0,0,0,2.337.686,1.235,1.235,0,0,0,1.263-.584.631.631,0,0,0,.03-.069.537.537,0,0,0,.02-.073l.014-.065.009-.045-.033-.032L9.685,21.9a4.366,4.366,0,0,0-.527-.469m7.228-5.4-.134.091c.193.639,1.025.782,1.4.846l.042.007.057.01.039.007.03-.026.044-.038c.469-.4.425-1.548.375-2.833v0l-.015-.39c0-.131-.009-.262-.012-.389l0-.083-.085,0-.245.006-.084,0,0,.085c.006.252.016.5.024.736l0,.049c.022.575.044,1.12.021,1.564a1.817,1.817,0,0,1-.192.875,3.948,3.948,0,0,1-.706-.2A2.276,2.276,0,0,1,16.387,16.035ZM9.866,9.3l-.109.13c.209.2.5.527.812.889s.637.76.92,1.105c.434.531.888,1.034,1.358,1.523q.465.483.948.95c.079-.092.189-.212.282-.305q-.453-.441-.892-.894-.679-.7-1.322-1.447c-.357-.415-.672-.768-.988-1.083A8.659,8.659,0,0,0,9.866,9.3m-3.6,10.56.144-.082-.172-.545-.018-.03c-.206-.228-.54-.568-.915-.948a14.534,14.534,0,0,1-2.223-2.541.341.341,0,0,1-.019-.2.186.186,0,0,1,.1-.111c.824-.428,1.552.166,2.071.59a3.739,3.739,0,0,0,.409.307l.111-.124A3.637,3.637,0,0,0,4.37,14.983a1.578,1.578,0,0,0-1.392.049.591.591,0,0,0-.309.335.743.743,0,0,0,.024.479,15.389,15.389,0,0,0,2.532,2.93c.422.428.8.813,1.045,1.084m1.085-4.075.068.032.04-.064.13-.209.045-.071-.073-.047A8.661,8.661,0,0,1,5.44,13.533a15.472,15.472,0,0,1-1.484-2.246l-.157.059a7.093,7.093,0,0,0,1.4,2.5,7.289,7.289,0,0,0,2.151,1.94" fill="#b5603e" fill-rule="evenodd"/>
    <path id="Path_107487" data-name="Path 107487" d="M24.314,24.1c3.216-2.412,8.239-1.839,9.687-5.226-.539,4.32-4.221,4.267-7.51,5.707a3.778,3.778,0,0,0-2.086,1.849,7.622,7.622,0,0,1,3.608.18c-1.786.067-2.626.1-3.952,1.122a6.43,6.43,0,0,0-.037.706v4.734c.195,1.941.313,2.545,1.449,3.409,1,.759,3.45,1.1,5.006,2.218a22.3,22.3,0,0,0-10.5.116c-2.212.487-2.866.71-8.5.118,3.437-.588,4.992-.046,8.668-1.248-3.141,0-5.839.469-8.992.049,3.54-.472,6.325-.021,10.19-1.616a29.621,29.621,0,0,0-7.544.089,39.5,39.5,0,0,1,6.759-1.324c.748-.37,1-1.092.956-2.392-.052-1.523-.3-3.489-1.474-3.965a9.06,9.06,0,0,0-2.663-.671c3.159-.825,4.072-1.663,4.018-5.1q-.026-1.71-.053-3.42V15.858c0-3.073-1.336-2.042-4.519-1.678a10.4,10.4,0,0,1,5.533-3.6c.4-.939.687-1.373,2.4-2.121a4.729,4.729,0,0,0-.567,2.031A5.746,5.746,0,0,1,29.924,12.7l.924.42c3.143,1.429,3.648,3,2.428,5.416-1.075,2.127-2.966,2.074-5.216,2.873a5.864,5.864,0,0,0,1.288-2.648A4.675,4.675,0,0,0,30.5,17.456a5.692,5.692,0,0,0-1.128-.325,4.793,4.793,0,0,0-1.706-2.98c-1.2-.954-2.635-1.053-3.224.381a5,5,0,0,0-.315,1.242,28.829,28.829,0,0,0-.06,4.328A4.3,4.3,0,0,1,27,18.621a4.492,4.492,0,0,0-2.858,2.868c.055.964.121,1.875.177,2.614" fill="#b5603e" fill-rule="evenodd"/>
    <path id="Path_107488" data-name="Path 107488" d="M29.448,37.157a7.394,7.394,0,0,1,3.117-.2c.091.02.866.024.606.3a6.681,6.681,0,0,1-3.208.136,2.851,2.851,0,0,1-.286-.077c-1.24.117-2.663.408-3.545-.271l-.082-.03c1.26.043,2.3.188,3.487.241a.234.234,0,0,1-.067-.052Zm2.23,1.46c.467,0,1.551.109.813-.257-.327-.162.77-.012.917-.012.521,0,2.138-.16.434-.274-.482-.032-.719-.082-1.276-.082-.3,0-2.01-.252-2.061.346a2.794,2.794,0,0,1,.441.146.99.99,0,0,0,.73.133m-2.539-2.29c-.292-.384-3.049-.319-3.519-.175-.793.243-3.375.148-3.6.39a32.975,32.975,0,0,1,4.064.047,13.985,13.985,0,0,0,2.867-.066c.024-.024.227-.151.193-.195" fill="#b5603e" fill-rule="evenodd"/>
    <path id="Path_107489" data-name="Path 107489" d="M40.3,23.889H46.58a4.649,4.649,0,0,1,4.882,4.972c0,2.52-1.462,4.972-4.882,4.972H43.048v5.557H40.3Zm2.745,7.47h3.4a2.24,2.24,0,0,0,2.272-2.5,2.254,2.254,0,0,0-2.205-2.52H43.048Zm16.5-2.745c2.7,0,4.208,1.823,4.208,4.883v5.895h-2.61V33.677c0-1.687-1.013-2.587-2.182-2.587a2.553,2.553,0,0,0-2.678,2.745v5.557h-2.61V23.17h2.61v7.313A3.666,3.666,0,0,1,59.547,28.615Zm12.8,0a3.848,3.848,0,0,1,1.71.36l-.518,2.475a3.287,3.287,0,0,0-1.53-.382c-1.71,0-2.655,1.71-2.655,4.657v3.667H66.726V28.885h2.61v2.25A3.141,3.141,0,0,1,72.351,28.615Zm13.358,5.422c0,.292-.023.63-.045,1.013H77.519a2.771,2.771,0,0,0,2.993,2.25,3.49,3.49,0,0,0,2.835-1.35L85.1,37.277a5.586,5.586,0,0,1-4.747,2.385,5.336,5.336,0,0,1-5.512-5.535,5.342,5.342,0,0,1,5.512-5.512A5.193,5.193,0,0,1,85.709,34.037Zm-8.19-.81h5.6a2.561,2.561,0,0,0-2.745-2.3A2.688,2.688,0,0,0,77.519,33.227Zm20.824.81c0,.292-.022.63-.045,1.013H90.153a2.771,2.771,0,0,0,2.993,2.25,3.49,3.49,0,0,0,2.835-1.35l1.755,1.327a5.586,5.586,0,0,1-4.747,2.385,5.336,5.336,0,0,1-5.513-5.535,5.342,5.342,0,0,1,5.513-5.512A5.193,5.193,0,0,1,98.343,34.037Zm-8.19-.81h5.6a2.561,2.561,0,0,0-2.745-2.3A2.688,2.688,0,0,0,90.153,33.227Zm7.595-9.338h11.61v2.452h-4.432v13.05H102.18V26.342H97.747Zm21.887,10.147c0,.292-.022.63-.045,1.013h-8.145a2.772,2.772,0,0,0,2.993,2.25,3.49,3.49,0,0,0,2.835-1.35l1.755,1.327a5.587,5.587,0,0,1-4.748,2.385,5.336,5.336,0,0,1-5.512-5.535,5.342,5.342,0,0,1,5.512-5.512A5.193,5.193,0,0,1,119.634,34.037Zm-8.19-.81h5.6a2.562,2.562,0,0,0-2.745-2.3A2.689,2.689,0,0,0,111.444,33.227Zm15.627,6.435a5.527,5.527,0,1,1,0-11.047,5.36,5.36,0,0,1,4.275,2.025L129.5,32.1a3.123,3.123,0,0,0-2.385-1.058,3,3,0,0,0-3.127,3.082,3.033,3.033,0,0,0,3.127,3.1,3.123,3.123,0,0,0,2.385-1.057l1.845,1.463A5.36,5.36,0,0,1,127.071,39.662Zm12.39-11.047c2.7,0,4.208,1.823,4.208,4.883v5.895h-2.61V33.677c0-1.687-1.013-2.587-2.183-2.587a2.553,2.553,0,0,0-2.677,2.745v5.557h-2.61V23.17h2.61v7.313A3.665,3.665,0,0,1,139.461,28.615Z" fill="#313532"/>
  </g>
</svg>
