<svg width="100" height="100" viewBox="0 0 100 100" fill="none" xmlns="http://www.w3.org/2000/svg">
<rect width="100" height="100" rx="14" fill="url(#paint0_linear_92002_40)"/>
<g filter="url(#filter0_ddi_92002_40)">
<mask id="path-2-inside-1_92002_40" fill="white">
<path d="M46.2617 39.4336C46.2617 40.957 45.168 41.7188 42.9805 41.7188L41.8281 41.6797L40.6367 41.7188H38.7617C36.8346 41.7188 35.6758 41.8815 35.2852 42.207C34.6862 42.7148 34.3867 44.2578 34.3867 46.8359C34.3867 47.6042 34.7057 48.1055 35.3438 48.3398C35.9818 48.5612 37.4987 48.6719 39.8945 48.6719C42.3034 48.6719 43.638 48.7826 43.8984 49.0039C44.1719 49.2253 44.3086 49.8047 44.3086 50.7422C44.3086 51.6797 44.0026 52.2461 43.3906 52.4414C43.0781 52.5456 41.7109 52.5977 39.2891 52.5977C36.8802 52.5977 35.3893 52.819 34.8164 53.2617C34.2565 53.6914 33.9766 54.9089 33.9766 56.9141C33.9766 58.9193 34.3021 60.1107 34.9531 60.4883C35.6172 60.8659 37.3945 61.0547 40.2852 61.0547C43.1758 61.0547 44.9336 61.1914 45.5586 61.4648C46.1966 61.7383 46.5156 62.3503 46.5156 63.3008C46.5156 64.1081 45.9753 64.6029 44.8945 64.7852C43.4362 65.0326 40.9688 65.1562 37.4922 65.1562H35.4219C32.6224 65.1562 30.8906 64.9674 30.2266 64.5898C29.4193 64.1341 29.0156 62.5977 29.0156 59.9805V56.5039C29.0156 54.2513 29.1003 51.9401 29.2695 49.5703C29.4388 47.2005 29.5234 44.8503 29.5234 42.5195C29.5234 40.1758 29.7708 38.7826 30.2656 38.3398C30.9167 37.7539 32.5182 37.4609 35.0703 37.4609H39.0156L39.6602 37.4805L42.2188 37.4609C43.7422 37.4609 44.7969 37.5911 45.3828 37.8516C45.9688 38.112 46.2617 38.6393 46.2617 39.4336ZM60.3242 53.7891H63.3125C64.5495 53.7891 65.168 53.6068 65.168 53.2422V53.125C65.168 51.6536 64.3151 48.6979 62.6094 44.2578C62.2839 43.4115 62.0625 42.9883 61.9453 42.9883C61.8932 42.9883 61.6719 43.4375 61.2812 44.3359C59.276 49.0104 58.2734 51.9922 58.2734 53.2812C58.2734 53.6198 58.957 53.7891 60.3242 53.7891ZM73.4492 63.8281C73.4492 64.5182 72.8112 64.8633 71.5352 64.8633C70.2591 64.8633 69.3346 64.4661 68.7617 63.6719C68.4102 63.1771 68 62.2331 67.5312 60.8398C67.0755 59.4336 66.7305 58.5938 66.4961 58.3203C66.1055 57.8776 65.1029 57.6562 63.4883 57.6562C60.207 57.6562 58.1237 57.8841 57.2383 58.3398C56.7565 58.5872 56.2422 59.4792 55.6953 61.0156C55.1484 62.5521 54.7448 63.4831 54.4844 63.8086C53.9896 64.4206 53.1497 64.7266 51.9648 64.7266C50.793 64.7266 50.207 64.4531 50.207 63.9062C50.207 63.3594 51.3919 59.5312 53.7617 52.4219C56.1315 45.3125 57.3685 41.6471 57.4727 41.4258C58.4753 39.3685 59.1784 38.1641 59.582 37.8125C59.9987 37.4609 60.7799 37.2852 61.9258 37.2852C63.0716 37.2982 63.8333 37.4479 64.2109 37.7344C65.1354 38.4505 66.4831 41.4128 68.2539 46.6211C70.0378 51.8294 71.0794 55.0586 71.3789 56.3086C71.6784 57.5456 72.0951 59.0495 72.6289 60.8203C73.1758 62.5911 73.4492 63.5938 73.4492 63.8281Z"/>
</mask>
<path d="M46.2617 39.4336C46.2617 40.957 45.168 41.7188 42.9805 41.7188L41.8281 41.6797L40.6367 41.7188H38.7617C36.8346 41.7188 35.6758 41.8815 35.2852 42.207C34.6862 42.7148 34.3867 44.2578 34.3867 46.8359C34.3867 47.6042 34.7057 48.1055 35.3438 48.3398C35.9818 48.5612 37.4987 48.6719 39.8945 48.6719C42.3034 48.6719 43.638 48.7826 43.8984 49.0039C44.1719 49.2253 44.3086 49.8047 44.3086 50.7422C44.3086 51.6797 44.0026 52.2461 43.3906 52.4414C43.0781 52.5456 41.7109 52.5977 39.2891 52.5977C36.8802 52.5977 35.3893 52.819 34.8164 53.2617C34.2565 53.6914 33.9766 54.9089 33.9766 56.9141C33.9766 58.9193 34.3021 60.1107 34.9531 60.4883C35.6172 60.8659 37.3945 61.0547 40.2852 61.0547C43.1758 61.0547 44.9336 61.1914 45.5586 61.4648C46.1966 61.7383 46.5156 62.3503 46.5156 63.3008C46.5156 64.1081 45.9753 64.6029 44.8945 64.7852C43.4362 65.0326 40.9688 65.1562 37.4922 65.1562H35.4219C32.6224 65.1562 30.8906 64.9674 30.2266 64.5898C29.4193 64.1341 29.0156 62.5977 29.0156 59.9805V56.5039C29.0156 54.2513 29.1003 51.9401 29.2695 49.5703C29.4388 47.2005 29.5234 44.8503 29.5234 42.5195C29.5234 40.1758 29.7708 38.7826 30.2656 38.3398C30.9167 37.7539 32.5182 37.4609 35.0703 37.4609H39.0156L39.6602 37.4805L42.2188 37.4609C43.7422 37.4609 44.7969 37.5911 45.3828 37.8516C45.9688 38.112 46.2617 38.6393 46.2617 39.4336ZM60.3242 53.7891H63.3125C64.5495 53.7891 65.168 53.6068 65.168 53.2422V53.125C65.168 51.6536 64.3151 48.6979 62.6094 44.2578C62.2839 43.4115 62.0625 42.9883 61.9453 42.9883C61.8932 42.9883 61.6719 43.4375 61.2812 44.3359C59.276 49.0104 58.2734 51.9922 58.2734 53.2812C58.2734 53.6198 58.957 53.7891 60.3242 53.7891ZM73.4492 63.8281C73.4492 64.5182 72.8112 64.8633 71.5352 64.8633C70.2591 64.8633 69.3346 64.4661 68.7617 63.6719C68.4102 63.1771 68 62.2331 67.5312 60.8398C67.0755 59.4336 66.7305 58.5938 66.4961 58.3203C66.1055 57.8776 65.1029 57.6562 63.4883 57.6562C60.207 57.6562 58.1237 57.8841 57.2383 58.3398C56.7565 58.5872 56.2422 59.4792 55.6953 61.0156C55.1484 62.5521 54.7448 63.4831 54.4844 63.8086C53.9896 64.4206 53.1497 64.7266 51.9648 64.7266C50.793 64.7266 50.207 64.4531 50.207 63.9062C50.207 63.3594 51.3919 59.5312 53.7617 52.4219C56.1315 45.3125 57.3685 41.6471 57.4727 41.4258C58.4753 39.3685 59.1784 38.1641 59.582 37.8125C59.9987 37.4609 60.7799 37.2852 61.9258 37.2852C63.0716 37.2982 63.8333 37.4479 64.2109 37.7344C65.1354 38.4505 66.4831 41.4128 68.2539 46.6211C70.0378 51.8294 71.0794 55.0586 71.3789 56.3086C71.6784 57.5456 72.0951 59.0495 72.6289 60.8203C73.1758 62.5911 73.4492 63.5938 73.4492 63.8281Z" fill="black"/>
<path d="M42.9805 41.7188L42.9466 42.7182L42.9635 42.7188H42.9805V41.7188ZM41.8281 41.6797L41.862 40.6803L41.8287 40.6791L41.7954 40.6802L41.8281 41.6797ZM40.6367 41.7188V42.7188H40.6531L40.6695 42.7182L40.6367 41.7188ZM35.2852 42.207L34.6449 41.4388L34.6385 41.4443L35.2852 42.207ZM35.3438 48.3398L34.9989 49.2785L35.0074 49.2816L35.016 49.2846L35.3438 48.3398ZM43.8984 49.0039L43.2508 49.7658L43.2599 49.7736L43.2692 49.7812L43.8984 49.0039ZM43.3906 52.4414L43.0866 51.4887L43.0744 51.4927L43.3906 52.4414ZM34.8164 53.2617L35.4252 54.055L35.4279 54.053L34.8164 53.2617ZM34.9531 60.4883L34.4514 61.3533L34.4588 61.3576L34.9531 60.4883ZM45.5586 61.4648L45.1578 62.381L45.1647 62.384L45.5586 61.4648ZM44.8945 64.7852L44.7282 63.7991L44.7273 63.7992L44.8945 64.7852ZM30.2266 64.5898L30.7209 63.7205L30.7182 63.719L30.2266 64.5898ZM30.2656 38.3398L30.9324 39.0851L30.9346 39.0831L30.2656 38.3398ZM39.0156 37.4609L39.0459 36.4614L39.0308 36.4609H39.0156V37.4609ZM39.6602 37.4805L39.6299 38.48L39.6488 38.4806L39.6678 38.4804L39.6602 37.4805ZM42.2188 37.4609L42.2187 36.4609L42.2111 36.461L42.2188 37.4609ZM45.2617 39.4336C45.2617 39.9223 45.1068 40.1619 44.8699 40.3269C44.5673 40.5376 43.9889 40.7188 42.9805 40.7188V42.7188C44.1595 42.7188 45.2218 42.519 46.0129 41.9681C46.8698 41.3713 47.2617 40.4684 47.2617 39.4336H45.2617ZM43.0143 40.7193L41.862 40.6803L41.7942 42.6791L42.9466 42.7182L43.0143 40.7193ZM41.7954 40.6802L40.6039 40.7193L40.6695 42.7182L41.8609 42.6792L41.7954 40.6802ZM40.6367 40.7188H38.7617V42.7188H40.6367V40.7188ZM38.7617 40.7188C37.7773 40.7188 36.9535 40.7599 36.3082 40.8505C35.9854 40.8959 35.6854 40.9565 35.4216 41.0396C35.1692 41.1192 34.8846 41.2392 34.645 41.4388L35.9253 42.9753C35.8811 43.0121 35.8878 42.9897 36.0227 42.9472C36.1463 42.9082 36.3297 42.8671 36.5863 42.8311C37.0999 42.759 37.8191 42.7188 38.7617 42.7188V40.7188ZM34.6385 41.4443C34.0608 41.934 33.7862 42.7483 33.6296 43.5546C33.4625 44.4158 33.3867 45.5179 33.3867 46.8359H35.3867C35.3867 45.5758 35.4607 44.6174 35.593 43.9357C35.659 43.5957 35.7346 43.351 35.808 43.1833C35.8835 43.011 35.9368 42.9656 35.9318 42.9698L34.6385 41.4443ZM33.3867 46.8359C33.3867 47.3553 33.4948 47.8731 33.7823 48.325C34.0761 48.7867 34.5051 49.0971 34.9989 49.2785L35.6886 47.4012C35.5444 47.3482 35.4948 47.2908 35.4696 47.2512C35.4382 47.2018 35.3867 47.0848 35.3867 46.8359H33.3867ZM35.016 49.2846C35.4691 49.4418 36.1225 49.5304 36.8872 49.5862C37.6795 49.644 38.6844 49.6719 39.8945 49.6719V47.6719C38.7088 47.6719 37.7574 47.6444 37.0327 47.5915C36.2804 47.5366 35.8564 47.4592 35.6715 47.3951L35.016 49.2846ZM39.8945 49.6719C41.0894 49.6719 41.9931 49.6995 42.6195 49.7515C42.9348 49.7776 43.1557 49.808 43.2979 49.8377C43.369 49.8525 43.4013 49.8632 43.4066 49.8651C43.4241 49.8715 43.3478 49.8483 43.2508 49.7658L44.5461 48.242C44.384 48.1042 44.209 48.0291 44.0943 47.9871C43.9673 47.9406 43.8338 47.9063 43.7055 47.8796C43.449 47.8262 43.1369 47.7875 42.7848 47.7583C42.0765 47.6996 41.1085 47.6719 39.8945 47.6719V49.6719ZM43.2692 49.7812C43.1502 49.6848 43.1833 49.6246 43.2328 49.8341C43.2763 50.0185 43.3086 50.312 43.3086 50.7422H45.3086C45.3086 50.2349 45.2726 49.77 45.1793 49.3748C45.0921 49.005 44.9201 48.5444 44.5276 48.2267L43.2692 49.7812ZM43.3086 50.7422C43.3086 51.1155 43.2456 51.3091 43.1993 51.3948C43.1689 51.451 43.1455 51.4699 43.0866 51.4887L43.6947 53.3941C44.2477 53.2176 44.6833 52.8557 44.9589 52.3454C45.2186 51.8647 45.3086 51.3064 45.3086 50.7422H43.3086ZM43.0744 51.4927C43.1188 51.4779 43.0818 51.494 42.8659 51.5141C42.6817 51.5312 42.426 51.5466 42.0928 51.5593C41.428 51.5846 40.4953 51.5977 39.2891 51.5977V53.5977C40.5047 53.5977 41.4666 53.5846 42.1689 53.5579C42.5193 53.5445 42.8154 53.5274 43.0511 53.5055C43.2552 53.4865 43.5062 53.457 43.7069 53.3901L43.0744 51.4927ZM39.2891 51.5977C38.0608 51.5977 37.0313 51.6537 36.2174 51.7745C35.4488 51.8886 34.7088 52.0811 34.205 52.4704L35.4279 54.053C35.4969 53.9997 35.7888 53.8601 36.5111 53.7528C37.1881 53.6523 38.1085 53.5977 39.2891 53.5977V51.5977ZM34.2076 52.4684C33.647 52.8986 33.3681 53.5941 33.212 54.273C33.0481 54.9857 32.9766 55.8755 32.9766 56.9141H34.9766C34.9766 55.9474 35.045 55.2259 35.1611 54.7212C35.2849 54.1826 35.4259 54.0545 35.4252 54.055L34.2076 52.4684ZM32.9766 56.9141C32.9766 57.9577 33.0599 58.8571 33.2561 59.5751C33.4459 60.2699 33.79 60.9697 34.4514 61.3533L35.4548 59.6233C35.4652 59.6293 35.321 59.5445 35.1853 59.048C35.056 58.5746 34.9766 57.8756 34.9766 56.9141H32.9766ZM34.4588 61.3576C34.9894 61.6593 35.7886 61.813 36.6785 61.9075C37.6169 62.0072 38.8232 62.0547 40.2852 62.0547V60.0547C38.8565 60.0547 37.7288 60.0078 36.8898 59.9187C36.0024 59.8244 35.5809 59.6949 35.4474 59.619L34.4588 61.3576ZM40.2852 62.0547C41.7187 62.0547 42.8518 62.0887 43.6939 62.1542C44.5839 62.2234 45.0197 62.3206 45.1578 62.381L45.9594 60.5487C45.4725 60.3357 44.7169 60.2277 43.849 60.1602C42.9333 60.089 41.7423 60.0547 40.2852 60.0547V62.0547ZM45.1647 62.384C45.2966 62.4405 45.5156 62.5743 45.5156 63.3008H47.5156C47.5156 62.1262 47.0966 61.036 45.9525 60.5457L45.1647 62.384ZM45.5156 63.3008C45.5156 63.4558 45.476 63.5023 45.435 63.5398C45.3611 63.6075 45.1668 63.7251 44.7282 63.7991L45.0609 65.7712C45.703 65.6629 46.3192 65.442 46.7857 65.0149C47.2851 64.5576 47.5156 63.9531 47.5156 63.3008H45.5156ZM44.7273 63.7992C43.3599 64.0312 40.9672 64.1562 37.4922 64.1562V66.1562C40.9703 66.1562 43.5125 66.0339 45.0618 65.7711L44.7273 63.7992ZM37.4922 64.1562H35.4219V66.1562H37.4922V64.1562ZM35.4219 64.1562C34.0395 64.1562 32.9469 64.1094 32.1318 64.0205C31.2714 63.9267 30.8573 63.7982 30.7209 63.7206L29.7323 65.4591C30.2598 65.7591 31.0437 65.9138 31.9151 66.0088C32.8318 66.1087 34.0048 66.1562 35.4219 66.1562V64.1562ZM30.7182 63.719C30.6709 63.6923 30.4647 63.5234 30.2855 62.8416C30.115 62.1924 30.0156 61.2509 30.0156 59.9805H28.0156C28.0156 61.3272 28.1181 62.4626 28.3512 63.3498C28.5757 64.2044 28.9749 65.0316 29.735 65.4607L30.7182 63.719ZM30.0156 59.9805V56.5039H28.0156V59.9805H30.0156ZM30.0156 56.5039C30.0156 54.2763 30.0993 51.9889 30.267 49.6416L28.2721 49.4991C28.1012 51.8913 28.0156 54.2263 28.0156 56.5039H30.0156ZM30.267 49.6416C30.4379 47.2485 30.5234 44.8745 30.5234 42.5195H28.5234C28.5234 44.826 28.4397 47.1525 28.2721 49.4991L30.267 49.6416ZM30.5234 42.5195C30.5234 41.3735 30.5846 40.5054 30.6936 39.8916C30.748 39.5853 30.8098 39.369 30.868 39.2249C30.9293 39.0733 30.9648 39.0561 30.9324 39.0851L29.5988 37.5946C29.3191 37.8449 29.1381 38.1679 29.0138 38.4753C28.8865 38.7902 28.7937 39.1517 28.7244 39.542C28.586 40.3214 28.5234 41.3218 28.5234 42.5195H30.5234ZM30.9346 39.0831C31.0483 38.9808 31.3835 38.8018 32.135 38.6643C32.853 38.533 33.8248 38.4609 35.0703 38.4609V36.4609C33.7637 36.4609 32.6588 36.5353 31.7751 36.697C30.9251 36.8525 30.134 37.1129 29.5967 37.5965L30.9346 39.0831ZM35.0703 38.4609H39.0156V36.4609H35.0703V38.4609ZM38.9853 38.4605L39.6299 38.48L39.6904 36.4809L39.0459 36.4614L38.9853 38.4605ZM39.6678 38.4804L42.2264 38.4609L42.2111 36.461L39.6525 36.4805L39.6678 38.4804ZM42.2188 38.4609C43.7436 38.4609 44.6041 38.5998 44.9767 38.7654L45.789 36.9378C44.9897 36.5825 43.7408 36.4609 42.2188 36.4609V38.4609ZM44.9767 38.7654C45.0846 38.8133 45.1336 38.8664 45.1678 38.928C45.2097 39.0034 45.2617 39.1543 45.2617 39.4336H47.2617C47.2617 38.9186 47.1672 38.4087 46.9161 37.9567C46.6574 37.491 46.267 37.1502 45.789 36.9378L44.9767 38.7654ZM62.6094 44.2578L63.5429 43.8992L63.5427 43.8988L62.6094 44.2578ZM61.2812 44.3359L60.3642 43.9372L60.3622 43.9417L61.2812 44.3359ZM68.7617 63.6719L67.9465 64.2511L67.9507 64.2569L68.7617 63.6719ZM67.5312 60.8398L66.5799 61.1482L66.5835 61.1587L67.5312 60.8398ZM66.4961 58.3203L67.2554 57.6695L67.2507 57.6641L67.2459 57.6587L66.4961 58.3203ZM57.2383 58.3398L57.6951 59.2294L57.6959 59.229L57.2383 58.3398ZM54.4844 63.8086L55.262 64.4373L55.2652 64.4333L54.4844 63.8086ZM57.4727 41.4258L56.5736 40.9877L56.5678 41L57.4727 41.4258ZM59.582 37.8125L58.9372 37.0482L58.9312 37.0533L58.9253 37.0584L59.582 37.8125ZM61.9258 37.2852L61.9371 36.2852H61.9258V37.2852ZM64.2109 37.7344L64.8234 36.9438L64.8153 36.9377L64.2109 37.7344ZM68.2539 46.6211L67.3071 46.943L67.3079 46.9451L68.2539 46.6211ZM71.3789 56.3086L70.4064 56.5416L70.407 56.5439L71.3789 56.3086ZM72.6289 60.8203L71.6714 61.109L71.6734 61.1154L72.6289 60.8203ZM60.3242 54.7891H63.3125V52.7891H60.3242V54.7891ZM63.3125 54.7891C63.956 54.7891 64.5364 54.7443 64.9868 54.6115C65.2111 54.5455 65.4831 54.4351 65.7144 54.2306C65.9748 54.0003 66.168 53.6595 66.168 53.2422H64.168C64.168 53.0072 64.2838 52.8258 64.3896 52.7323C64.4663 52.6645 64.5064 52.6681 64.4214 52.6931C64.2533 52.7427 63.906 52.7891 63.3125 52.7891V54.7891ZM66.168 53.2422V53.125H64.168V53.2422H66.168ZM66.168 53.125C66.168 52.2403 65.9197 51.0196 65.4891 49.5275C65.0517 48.0115 64.4011 46.1333 63.5429 43.8992L61.6759 44.6164C62.5234 46.8225 63.1521 48.6421 63.5675 50.0819C63.9898 51.5455 64.168 52.5384 64.168 53.125H66.168ZM63.5427 43.8988C63.3761 43.4656 63.223 43.1055 63.0853 42.8422C63.019 42.7154 62.9353 42.5701 62.8336 42.4429C62.7833 42.3801 62.7022 42.2879 62.5883 42.2038C62.4827 42.1258 62.2591 41.9883 61.9453 41.9883V43.9883C61.6608 43.9883 61.4698 43.864 61.4 43.8125C61.3219 43.7548 61.2798 43.7023 61.2719 43.6923C61.2548 43.6709 61.2687 43.6843 61.3131 43.7692C61.3967 43.929 61.5171 44.2037 61.676 44.6168L63.5427 43.8988ZM61.9453 41.9883C61.608 41.9883 61.3846 42.1543 61.3251 42.1999C61.2394 42.2656 61.1811 42.3317 61.1524 42.3659C61.0919 42.4378 61.0466 42.5093 61.0203 42.5526C60.9626 42.6474 60.9022 42.7635 60.8432 42.8832C60.7217 43.1298 60.5611 43.4844 60.3642 43.9372L62.1983 44.7347C62.3921 44.2891 62.5374 43.9698 62.6372 43.7672C62.6889 43.6623 62.7181 43.6099 62.7287 43.5925C62.7366 43.5795 62.7202 43.609 62.6833 43.6528C62.6664 43.6729 62.6185 43.7285 62.542 43.7872C62.5022 43.8176 62.4373 43.8626 62.3488 43.9022C62.2612 43.9414 62.1219 43.9883 61.9453 43.9883V41.9883ZM60.3622 43.9417C59.3546 46.2907 58.591 48.2323 58.0775 49.7594C57.5773 51.2472 57.2734 52.4553 57.2734 53.2812H59.2734C59.2734 52.8181 59.4709 51.8908 59.9732 50.3968C60.4624 48.9421 61.2027 47.0557 62.2003 44.7302L60.3622 43.9417ZM57.2734 53.2812C57.2734 53.7629 57.5384 54.1079 57.8053 54.3062C58.0444 54.4838 58.3195 54.5768 58.5458 54.6328C59.0089 54.7475 59.6204 54.7891 60.3242 54.7891V52.7891C59.6609 52.7891 59.2469 52.746 59.0265 52.6914C58.911 52.6628 58.9297 52.65 58.9979 52.7007C59.0939 52.7719 59.2734 52.9689 59.2734 53.2812H57.2734ZM72.4492 63.8281C72.4492 63.841 72.4482 63.8051 72.4783 63.7563C72.5068 63.7101 72.5302 63.7058 72.495 63.7249C72.3946 63.7792 72.1157 63.8633 71.5352 63.8633V65.8633C72.2306 65.8633 72.9088 65.7748 73.4464 65.4841C73.7302 65.3306 73.9929 65.1107 74.1809 64.8057C74.3705 64.4981 74.4492 64.1603 74.4492 63.8281H72.4492ZM71.5352 63.8633C70.4732 63.8633 69.9027 63.5443 69.5727 63.0869L67.9507 64.2569C68.7666 65.388 70.045 65.8633 71.5352 65.8633V63.8633ZM69.5769 63.0927C69.3199 62.731 68.9484 61.9159 68.479 60.521L66.5835 61.1587C67.0516 62.5503 67.5004 63.6232 67.9465 64.2511L69.5769 63.0927ZM68.4825 60.5316C68.251 59.8172 68.0419 59.2287 67.8556 58.7752C67.6859 58.362 67.4896 57.9428 67.2554 57.6695L65.7368 58.9711C65.7223 58.9541 65.7465 58.9798 65.8056 59.0933C65.8595 59.1969 65.9263 59.342 66.0057 59.5353C66.1645 59.9217 66.3557 60.4563 66.58 61.1481L68.4825 60.5316ZM67.2459 57.6587C66.84 57.1986 66.2388 56.9721 65.6668 56.8458C65.0664 56.7132 64.3319 56.6562 63.4883 56.6562V58.6562C64.2592 58.6562 64.8333 58.7099 65.2356 58.7988C65.6662 58.8938 65.7615 58.9993 65.7463 58.9819L67.2459 57.6587ZM63.4883 56.6562C61.8292 56.6562 60.4481 56.7136 59.3561 56.8331C58.2971 56.9489 57.3975 57.1332 56.7806 57.4507L57.6959 59.229C57.9645 59.0907 58.5492 58.9333 59.5736 58.8212C60.5649 58.7128 61.8662 58.6562 63.4883 58.6562V56.6562ZM56.7815 57.4503C56.2741 57.7108 55.9051 58.2089 55.6249 58.6948C55.3254 59.2142 55.0367 59.884 54.7532 60.6803L56.6374 61.3509C56.9008 60.6108 57.1427 60.0664 57.3575 59.6939C57.5917 59.2878 57.7207 59.2163 57.6951 59.2294L56.7815 57.4503ZM54.7532 60.6803C54.4834 61.4384 54.2542 62.0319 54.0649 62.4684C53.9703 62.6866 53.8896 62.8566 53.8224 62.9837C53.7891 63.0468 53.7614 63.095 53.7393 63.1305C53.7284 63.148 53.7197 63.1611 53.7132 63.1705C53.7067 63.1799 53.7034 63.184 53.7035 63.1839L55.2652 64.4333C55.4879 64.155 55.6988 63.7278 55.8999 63.264C56.1143 62.7695 56.3604 62.1293 56.6374 61.3509L54.7532 60.6803ZM53.7067 63.1799C53.4819 63.4579 53.0037 63.7266 51.9648 63.7266V65.7266C53.2958 65.7266 54.4972 65.3832 55.262 64.4373L53.7067 63.1799ZM51.9648 63.7266C51.7082 63.7266 51.5053 63.7114 51.3495 63.6872C51.1907 63.6625 51.1052 63.632 51.0694 63.6153C51.0358 63.5996 51.0793 63.612 51.1306 63.6839C51.1889 63.7655 51.207 63.8532 51.207 63.9062H49.207C49.207 64.2327 49.2984 64.5597 49.5032 64.8464C49.701 65.1233 49.9642 65.3066 50.2236 65.4277C50.7167 65.6578 51.3327 65.7266 51.9648 65.7266V63.7266ZM51.207 63.9062C51.207 63.9581 51.2017 63.9353 51.2399 63.7591C51.2718 63.6118 51.3225 63.408 51.3944 63.1423C51.5379 62.6124 51.7561 61.8735 52.051 60.9207C52.6402 59.017 53.5262 56.2907 54.7104 52.7381L52.813 52.1056C51.6275 55.6624 50.7361 58.4048 50.1404 60.3293C49.8429 61.2905 49.6167 62.0556 49.464 62.6194C49.3878 62.9006 49.3274 63.1411 49.2853 63.3356C49.2494 63.5013 49.207 63.7176 49.207 63.9062H51.207ZM54.7104 52.7381C55.8952 49.1837 56.7964 46.4915 57.4143 44.6606C57.7233 43.7449 57.9609 43.0463 58.1274 42.5637C58.3091 42.0373 58.3813 41.8434 58.3775 41.8516L56.5678 41C56.5119 41.1188 56.3905 41.4661 56.2368 41.9114C56.0681 42.4005 55.8288 43.1041 55.5193 44.0211C54.9002 45.8556 53.998 48.5507 52.813 52.1056L54.7104 52.7381ZM58.3716 41.8639C58.8679 40.8454 59.282 40.0551 59.6156 39.4837C59.7824 39.1978 59.9229 38.9775 60.038 38.8157C60.0953 38.7353 60.1424 38.6747 60.1796 38.6307C60.198 38.6091 60.2125 38.5931 60.2233 38.582C60.2342 38.5706 60.2393 38.5661 60.2388 38.5666L58.9253 37.0584C58.5835 37.3561 58.234 37.8832 57.8883 38.4753C57.5188 39.1083 57.08 39.9488 56.5737 40.9877L58.3716 41.8639ZM60.2269 38.5768C60.2684 38.5417 60.3981 38.4605 60.7 38.3926C60.9951 38.3262 61.398 38.2852 61.9258 38.2852V36.2852C61.3078 36.2852 60.7471 36.332 60.261 36.4414C59.7816 36.5492 59.3123 36.7317 58.9372 37.0482L60.2269 38.5768ZM61.9144 38.2851C62.4522 38.2912 62.8634 38.3294 63.1636 38.3884C63.3122 38.4177 63.4213 38.4496 63.4982 38.4791C63.5359 38.4935 63.563 38.5062 63.5812 38.516C63.5995 38.5257 63.6069 38.5313 63.6066 38.5311L64.8153 36.9377C64.4516 36.6618 63.9955 36.5137 63.5493 36.426C63.0877 36.3353 62.5452 36.2921 61.9371 36.2852L61.9144 38.2851ZM63.5985 38.5249C63.6858 38.5926 63.8677 38.7889 64.1329 39.2182C64.3867 39.6291 64.6776 40.188 65.0048 40.9073C65.6588 42.3448 66.4262 44.352 67.3071 46.943L69.2007 46.2992C68.3108 43.6819 67.5189 41.6038 66.8253 40.0791C66.4787 39.3172 66.1486 38.6758 65.8344 38.1671C65.5315 37.6768 65.1983 37.2343 64.8233 36.9438L63.5985 38.5249ZM67.3079 46.9451C69.0982 52.1723 70.1206 55.3487 70.4064 56.5416L72.3514 56.0756C72.0382 54.7685 70.9773 51.4865 69.2 46.2971L67.3079 46.9451ZM70.407 56.5439C70.7123 57.8048 71.1344 59.3276 71.6715 61.109L73.5863 60.5317C73.0557 58.7714 72.6445 57.2863 72.3508 56.0733L70.407 56.5439ZM71.6734 61.1154C71.9457 61.997 72.147 62.6781 72.2794 63.1635C72.3458 63.407 72.3923 63.5921 72.4215 63.7241C72.4579 63.8887 72.4492 63.8939 72.4492 63.8281H74.4492C74.4492 63.6451 74.4064 63.4372 74.3744 63.2925C74.3352 63.1152 74.2792 62.8951 74.2089 62.6373C74.0679 62.1201 73.859 61.4144 73.5844 60.5252L71.6734 61.1154Z" fill="#1C1C21" mask="url(#path-2-inside-1_92002_40)"/>
</g>
<defs>
<filter id="filter0_ddi_92002_40" x="15.6195" y="31.5439" width="71.2258" height="54.6633" filterUnits="userSpaceOnUse" color-interpolation-filters="sRGB">
<feFlood flood-opacity="0" result="BackgroundImageFix"/>
<feColorMatrix in="SourceAlpha" type="matrix" values="0 0 0 0 0 0 0 0 0 0 0 0 0 0 0 0 0 0 127 0" result="hardAlpha"/>
<feMorphology radius="1" operator="dilate" in="SourceAlpha" result="effect1_dropShadow_92002_40"/>
<feOffset/>
<feComposite in2="hardAlpha" operator="out"/>
<feColorMatrix type="matrix" values="0 0 0 0 0.784314 0 0 0 0 0.858824 0 0 0 0 0.917647 0 0 0 1 0"/>
<feBlend mode="normal" in2="BackgroundImageFix" result="effect1_dropShadow_92002_40"/>
<feColorMatrix in="SourceAlpha" type="matrix" values="0 0 0 0 0 0 0 0 0 0 0 0 0 0 0 0 0 0 127 0" result="hardAlpha"/>
<feMorphology radius="5.74118" operator="erode" in="SourceAlpha" result="effect2_dropShadow_92002_40"/>
<feOffset dy="7.6549"/>
<feGaussianBlur stdDeviation="9.56865"/>
<feComposite in2="hardAlpha" operator="out"/>
<feColorMatrix type="matrix" values="0 0 0 0 0.788235 0 0 0 0 0.858824 0 0 0 0 0.917647 0 0 0 0.32 0"/>
<feBlend mode="normal" in2="effect1_dropShadow_92002_40" result="effect2_dropShadow_92002_40"/>
<feBlend mode="normal" in="SourceGraphic" in2="effect2_dropShadow_92002_40" result="shape"/>
<feColorMatrix in="SourceAlpha" type="matrix" values="0 0 0 0 0 0 0 0 0 0 0 0 0 0 0 0 0 0 127 0" result="hardAlpha"/>
<feOffset dy="3.82745"/>
<feGaussianBlur stdDeviation="4"/>
<feComposite in2="hardAlpha" operator="arithmetic" k2="-1" k3="1"/>
<feColorMatrix type="matrix" values="0 0 0 0 0.0470588 0 0 0 0 0.286275 0 0 0 0 0.52549 0 0 0 0.04 0"/>
<feBlend mode="normal" in2="shape" result="effect3_innerShadow_92002_40"/>
</filter>
<linearGradient id="paint0_linear_92002_40" x1="50" y1="0" x2="50" y2="100" gradientUnits="userSpaceOnUse">
<stop stop-color="#EBF3FA"/>
<stop offset="1" stop-color="#DFEDFA"/>
</linearGradient>
</defs>
</svg>
